<svg preserveAspectRatio="none" width="100%" height="100%" overflow="visible" style="display: block;" viewBox="0 0 17 20" fill="none" xmlns="http://www.w3.org/2000/svg">
<path id="Vector" d="M8.27284 5.74646C7.48284 5.74646 6.25994 4.84824 4.97213 4.88071C3.27308 4.90235 1.71472 5.8655 0.838141 7.39139C-0.925838 10.454 0.383619 14.9776 2.10431 17.4667C2.94842 18.6787 3.94404 20.0423 5.26432 19.999C6.53049 19.9449 7.00667 19.1765 8.54339 19.1765C10.0693 19.1765 10.5022 19.999 11.8441 19.9665C13.2077 19.9449 14.0734 18.7328 14.9067 17.5099C15.8699 16.1031 16.2703 14.7395 16.2919 14.6638C16.2594 14.653 13.6405 13.6465 13.6081 10.6164C13.5864 8.084 15.6751 6.87195 15.7725 6.81784C14.582 5.0755 12.7531 4.88071 12.1146 4.83742C10.4481 4.70755 9.05202 5.74646 8.27284 5.74646ZM11.0866 3.19248C11.79 2.34837 12.2553 1.16877 12.1255 0C11.119 0.0432878 9.90696 0.670965 9.18189 1.51508C8.53257 2.26179 7.96983 3.46303 8.12134 4.61016C9.236 4.69673 10.3831 4.03659 11.0866 3.19248Z" fill="var(--fill-0, #A3A3A3)"/>
</svg>
