<svg preserveAspectRatio="none" width="100%" height="100%" overflow="visible" style="display: block;" viewBox="0 0 16 14" fill="none" xmlns="http://www.w3.org/2000/svg">
<path id="Vector" d="M2.33333 4.33333V11.6667C2.33333 12.0203 2.47381 12.3594 2.72386 12.6095C2.97391 12.8595 3.31304 13 3.66667 13H5M13 4.33333V11.6667C13 12.0203 12.8595 12.3594 12.6095 12.6095C12.3594 12.8595 12.0203 13 11.6667 13H10.3333M5.66667 9L7.66667 7M7.66667 7L9.66667 9M7.66667 7V13M1.66667 1H13.6667C14.0349 1 14.3333 1.29848 14.3333 1.66667V3.66667C14.3333 4.03486 14.0349 4.33333 13.6667 4.33333H1.66667C1.29848 4.33333 1 4.03486 1 3.66667V1.66667C1 1.29848 1.29848 1 1.66667 1Z" stroke="var(--stroke-0, #6B7280)" stroke-width="1.5" stroke-linecap="round" stroke-linejoin="round"/>
</svg>
