<svg width="3" height="12" viewBox="0 0 3 12" fill="none" xmlns="http://www.w3.org/2000/svg">
<path d="M2.75 10.5C2.75 10.7472 2.67669 10.9889 2.53934 11.1945C2.40199 11.4 2.20676 11.5602 1.97836 11.6549C1.74995 11.7495 1.49861 11.7742 1.25614 11.726C1.01366 11.6778 0.790933 11.5587 0.616117 11.3839C0.441302 11.2091 0.32225 10.9863 0.274019 10.7439C0.225787 10.5014 0.250542 10.2501 0.345151 10.0216C0.439761 9.79324 0.599976 9.59802 0.805538 9.46066C1.0111 9.32331 1.25277 9.25 1.5 9.25C1.83152 9.25 2.14946 9.3817 2.38388 9.61612C2.6183 9.85054 2.75 10.1685 2.75 10.5ZM1.5 8C1.69891 8 1.88968 7.92098 2.03033 7.78033C2.17098 7.63968 2.25 7.44891 2.25 7.25V1C2.25 0.801088 2.17098 0.610322 2.03033 0.46967C1.88968 0.329018 1.69891 0.25 1.5 0.25C1.30109 0.25 1.11032 0.329018 0.96967 0.46967C0.829018 0.610322 0.750001 0.801088 0.750001 1V7.25C0.750001 7.44891 0.829018 7.63968 0.96967 7.78033C1.11032 7.92098 1.30109 8 1.5 8Z" fill="#0EA5E9"/>
</svg>
