<svg preserveAspectRatio="none" width="100%" height="100%" overflow="visible" style="display: block;" viewBox="0 0 20 14" fill="none" xmlns="http://www.w3.org/2000/svg">
<g id="Vector">
<path d="M0 0L20 2.74475e-07V4.61539L2.54774e-07 4.61539L0 0Z" fill="#FF9933"/>
<path d="M2.54774e-07 4.61539L20 4.61539V9.23071H5.09545e-07L2.54774e-07 4.61539Z" fill="white"/>
<path d="M5.09545e-07 9.23071H20V13.8461H7.6432e-07L5.09545e-07 9.23071Z" fill="#128807"/>
<path d="M9.9996 8.76909C11.1042 8.76909 11.9996 7.94254 11.9996 6.92293C11.9996 5.90333 11.1042 5.07678 9.9996 5.07678C8.89503 5.07678 7.9996 5.90333 7.9996 6.92293C7.9996 7.94254 8.89503 8.76909 9.9996 8.76909Z" fill="var(--fill-0, #000088)"/>
<path d="M9.99975 8.53836C10.9662 8.53836 11.7497 7.81512 11.7497 6.92297C11.7497 6.03082 10.9662 5.30759 9.99975 5.30759C9.03325 5.30759 8.24975 6.03082 8.24975 6.92297C8.24975 7.81512 9.03325 8.53836 9.99975 8.53836Z" fill="white"/>
<path d="M9.99999 7.24618C10.1933 7.24618 10.35 7.10154 10.35 6.92311C10.35 6.74468 10.1933 6.60003 9.99999 6.60003C9.80669 6.60003 9.64999 6.74468 9.64999 6.92311C9.64999 7.10154 9.80669 7.24618 9.99999 7.24618Z" fill="var(--fill-0, #000088)"/>
<path d="M11.723 7.21736C11.7723 7.22335 11.8175 7.19133 11.824 7.14584C11.8305 7.10035 11.7958 7.05862 11.7465 7.05263C11.6972 7.04664 11.652 7.07866 11.6455 7.12415C11.639 7.16964 11.6737 7.21137 11.723 7.21736Z" fill="var(--fill-0, #000088)"/>
<path d="M9.99975 8.53836L10.06 7.56962L10 7.10808L9.94003 7.56962L9.99975 8.53836Z" fill="var(--fill-0, #000088)"/>
<path d="M11.5814 7.62006C11.6267 7.63702 11.6793 7.61592 11.699 7.57293C11.7187 7.52993 11.698 7.48134 11.6527 7.46438C11.6075 7.44742 11.5548 7.46853 11.5351 7.51152C11.5155 7.55451 11.5362 7.6031 11.5814 7.62006Z" fill="var(--fill-0, #000088)"/>
<path d="M9.54401 8.48486L9.87481 7.56076L9.95127 7.10095L9.76499 7.53398L9.54401 8.48486Z" fill="var(--fill-0, #000088)"/>
<path d="M11.3312 7.97445C11.3699 8.00175 11.4264 7.99384 11.4574 7.95681C11.4883 7.91977 11.482 7.86762 11.4433 7.84032C11.4045 7.81303 11.348 7.82093 11.3171 7.85797C11.2861 7.89501 11.2924 7.94716 11.3312 7.97445Z" fill="var(--fill-0, #000088)"/>
<path d="M9.1228 8.32362L9.70048 7.50916L9.90187 7.08218L9.60064 7.45613L9.1228 8.32362Z" fill="var(--fill-0, #000088)"/>
<path d="M10.9915 8.25672C11.0211 8.29256 11.0776 8.29851 11.1177 8.27002C11.1577 8.24153 11.1662 8.18938 11.1365 8.15354C11.1069 8.1177 11.0504 8.11174 11.0103 8.14024C10.9703 8.16873 10.9618 8.22088 10.9915 8.25672Z" fill="var(--fill-0, #000088)"/>
<path d="M8.76018 8.06653L9.54555 7.41744L9.85889 7.05236L9.46339 7.34158L8.76018 8.06653Z" fill="var(--fill-0, #000088)"/>
<path d="M10.5884 8.44652C10.6082 8.48961 10.6608 8.51087 10.706 8.49401C10.7511 8.47715 10.7717 8.42855 10.7519 8.38547C10.7322 8.34238 10.6795 8.32112 10.6344 8.33798C10.5892 8.35484 10.5686 8.40344 10.5884 8.44652Z" fill="var(--fill-0, #000088)"/>
<path d="M8.48686 7.72886L9.42571 7.29687L9.8265 7.01744L9.36301 7.19698L8.48686 7.72886Z" fill="var(--fill-0, #000088)"/>
<path d="M10.1413 8.53448C10.1485 8.58068 10.1937 8.61385 10.2422 8.60857C10.2908 8.60329 10.3242 8.56156 10.317 8.51536C10.3097 8.46916 10.2645 8.43599 10.216 8.44127C10.1675 8.44655 10.134 8.48828 10.1413 8.53448Z" fill="var(--fill-0, #000088)"/>
<path d="M8.31232 7.3385L9.34169 7.14814L9.80737 6.97414L9.3085 7.0352L8.31232 7.3385Z" fill="var(--fill-0, #000088)"/>
<path d="M9.68173 8.51262C9.67604 8.55743 9.71201 8.59916 9.76209 8.60583C9.81216 8.6125 9.85737 8.58159 9.86306 8.53678C9.86876 8.49198 9.83278 8.45025 9.78271 8.44357C9.73263 8.4369 9.68743 8.46781 9.68173 8.51262Z" fill="var(--fill-0, #000088)"/>
<path d="M8.25206 6.91275L9.3017 6.97179L9.80002 6.93336L9.29966 6.88163L8.25206 6.91275Z" fill="var(--fill-0, #000088)"/>
<path d="M9.24548 8.38299C9.2268 8.4251 9.24918 8.4737 9.29545 8.49154C9.34172 8.50938 9.39437 8.4897 9.41304 8.44759C9.43171 8.40548 9.40934 8.35689 9.36307 8.33905C9.3168 8.32121 9.26415 8.34088 9.24548 8.38299Z" fill="var(--fill-0, #000088)"/>
<path d="M8.30824 6.5037L9.30824 6.80852L9.80654 6.87663L9.33819 6.70414L8.30824 6.5037Z" fill="var(--fill-0, #000088)"/>
<path d="M8.86411 8.15456C8.83314 8.19161 8.83943 8.24376 8.87815 8.27104C8.91688 8.29833 8.97337 8.29041 9.00434 8.25336C9.03531 8.21631 9.02903 8.16416 8.9903 8.13687C8.95158 8.10959 8.89508 8.11751 8.86411 8.15456Z" fill="var(--fill-0, #000088)"/>
<path d="M8.4857 6.11705L9.36185 6.64893L9.82534 6.82847L9.42455 6.54903L8.4857 6.11705Z" fill="var(--fill-0, #000088)"/>
<path d="M8.55738 7.84106C8.51724 7.86964 8.50865 7.92179 8.53819 7.95755C8.56774 7.9933 8.62424 7.99912 8.66438 7.97054C8.70453 7.94196 8.71312 7.88981 8.68357 7.85406C8.65402 7.8183 8.59753 7.81249 8.55738 7.84106Z" fill="var(--fill-0, #000088)"/>
<path d="M8.76385 5.78215L9.4601 6.50614L9.85665 6.79093L9.54817 6.42489L8.76385 5.78215Z" fill="var(--fill-0, #000088)"/>
<path d="M8.34869 7.46461C8.30223 7.48265 8.27954 7.53125 8.29801 7.57315C8.31649 7.61506 8.36914 7.6344 8.41561 7.61635C8.46207 7.59831 8.48476 7.54971 8.46628 7.50781C8.44781 7.46591 8.39516 7.44656 8.34869 7.46461Z" fill="var(--fill-0, #000088)"/>
<path d="M9.12639 5.52469L9.59581 6.39146L9.89832 6.76206L9.7028 6.33436L9.12639 5.52469Z" fill="var(--fill-0, #000088)"/>
<path d="M8.25377 7.05161C8.20394 7.05808 8.16835 7.09981 8.17429 7.14482C8.18023 7.18983 8.22544 7.22107 8.27527 7.2146C8.3251 7.20813 8.36068 7.1664 8.35474 7.12139C8.34881 7.07638 8.3036 7.04514 8.25377 7.05161Z" fill="var(--fill-0, #000088)"/>
<path d="M9.5489 5.36321L9.75733 6.31351L9.9455 6.74388L9.87781 6.2835L9.5489 5.36321Z" fill="var(--fill-0, #000088)"/>
<path d="M8.27907 6.6279C8.2306 6.62258 8.18539 6.65569 8.1781 6.70185C8.1708 6.74801 8.20418 6.78974 8.25265 6.79506C8.30113 6.80037 8.34634 6.76727 8.35363 6.72111C8.36093 6.67495 8.32755 6.63321 8.27907 6.6279Z" fill="var(--fill-0, #000088)"/>
<path d="M10.0129 5.30832L9.94862 6.27725L9.98885 6.73737L10.0446 6.27553L10.0129 5.30832Z" fill="var(--fill-0, #000088)"/>
<path d="M8.42015 6.22625C8.37491 6.20927 8.32227 6.23035 8.30256 6.27333C8.28286 6.3163 8.30356 6.3649 8.3488 6.38187C8.39403 6.39885 8.44668 6.37777 8.46639 6.33479C8.48609 6.29182 8.46539 6.24322 8.42015 6.22625Z" fill="var(--fill-0, #000088)"/>
<path d="M10.4577 5.36145L10.1269 6.28549L10.0503 6.74531L10.2366 6.31232L10.4577 5.36145Z" fill="var(--fill-0, #000088)"/>
<path d="M8.66897 5.87188C8.63026 5.84458 8.57376 5.85248 8.54278 5.88952C8.5118 5.92656 8.51807 5.97871 8.55679 6.00601C8.5955 6.0333 8.652 6.0254 8.68298 5.98836C8.71396 5.95132 8.70769 5.89917 8.66897 5.87188Z" fill="var(--fill-0, #000088)"/>
<path d="M10.878 5.52252L10.3003 6.33698L10.0988 6.76396L10.4 6.39001L10.878 5.52252Z" fill="var(--fill-0, #000088)"/>
<path d="M9.00793 5.58891C8.97838 5.55314 8.92189 5.54729 8.88174 5.57585C8.84159 5.6044 8.833 5.65655 8.86255 5.69233C8.89209 5.7281 8.94859 5.73395 8.98874 5.70539C9.02888 5.67684 9.03748 5.62468 9.00793 5.58891Z" fill="var(--fill-0, #000088)"/>
<path d="M11.2393 5.77889L10.4539 6.42831L10.1402 6.79334L10.5356 6.50389L11.2393 5.77889Z" fill="var(--fill-0, #000088)"/>
<path d="M9.41288 5.4C9.3931 5.35691 9.34045 5.33564 9.29529 5.3525C9.25013 5.36936 9.22955 5.41796 9.24933 5.46105C9.26912 5.50414 9.32176 5.5254 9.36692 5.50854C9.41209 5.49168 9.43266 5.44308 9.41288 5.4Z" fill="var(--fill-0, #000088)"/>
<path d="M11.5144 6.11747L10.5756 6.54945L10.1748 6.82889L10.6383 6.64935L11.5144 6.11747Z" fill="var(--fill-0, #000088)"/>
<path d="M9.85829 5.31185C9.85104 5.26565 9.80583 5.23248 9.75731 5.23776C9.70879 5.24303 9.67533 5.28477 9.68258 5.33097C9.68982 5.37717 9.73503 5.41034 9.78355 5.40506C9.83208 5.39978 9.86553 5.35805 9.85829 5.31185Z" fill="var(--fill-0, #000088)"/>
<path d="M11.6872 6.50802L10.6579 6.69837L10.1922 6.87238L10.691 6.81132L11.6872 6.50802Z" fill="var(--fill-0, #000088)"/>
<path d="M10.3188 5.33383C10.3244 5.28912 10.2882 5.24739 10.2381 5.24062C10.1879 5.23385 10.1427 5.2646 10.1371 5.3093C10.1315 5.35401 10.1676 5.39574 10.2178 5.40251C10.2679 5.40929 10.3132 5.37853 10.3188 5.33383Z" fill="var(--fill-0, #000088)"/>
<path d="M11.7479 6.9347L10.6983 6.87521L10.2002 6.91156L10.7006 6.96284L11.7479 6.9347Z" fill="var(--fill-0, #000088)"/>
<path d="M10.7536 5.46344C10.7721 5.42146 10.7495 5.37286 10.7031 5.3549C10.6567 5.33693 10.6041 5.35641 10.5855 5.39839C10.567 5.44038 10.5896 5.48898 10.636 5.50694C10.6824 5.5249 10.735 5.50543 10.7536 5.46344Z" fill="var(--fill-0, #000088)"/>
<path d="M11.6898 7.34299L10.6894 7.03798L10.1911 6.96895L10.6598 7.14124L11.6898 7.34299Z" fill="var(--fill-0, #000088)"/>
<path d="M11.138 5.69292C11.1679 5.65684 11.1599 5.60469 11.1201 5.57644C11.0803 5.54819 11.0238 5.55453 10.9939 5.59061C10.964 5.62669 10.972 5.67884 11.0118 5.7071C11.0516 5.73535 11.1081 5.729 11.138 5.69292Z" fill="var(--fill-0, #000088)"/>
<path d="M11.5165 7.73151L10.6356 7.1986L10.1728 7.01424L10.5769 7.29263L11.5165 7.73151Z" fill="var(--fill-0, #000088)"/>
<path d="M11.4443 6.0064C11.4834 5.97879 11.4902 5.92664 11.4596 5.88991C11.429 5.85319 11.3725 5.84579 11.3334 5.8734C11.2943 5.90101 11.2875 5.95316 11.3181 5.98988C11.3487 6.02661 11.4052 6.034 11.4443 6.0064Z" fill="var(--fill-0, #000088)"/>
<path d="M11.2376 8.06563L10.5356 7.34087L10.1399 7.05249L10.4524 7.41776L11.2376 8.06563Z" fill="var(--fill-0, #000088)"/>
<path d="M11.652 6.38272C11.6976 6.36548 11.7188 6.31688 11.6995 6.27418C11.6801 6.23148 11.6274 6.21084 11.5819 6.22809C11.5363 6.24533 11.5151 6.29393 11.5344 6.33663C11.5538 6.37933 11.6064 6.39997 11.652 6.38272Z" fill="var(--fill-0, #000088)"/>
<path d="M10.8761 8.3225L10.4008 7.45523L10.0992 7.08233L10.2988 7.50954L10.8761 8.3225Z" fill="var(--fill-0, #000088)"/>
<path d="M11.7477 6.7955C11.7966 6.78982 11.8307 6.74809 11.8239 6.70229C11.817 6.65649 11.7718 6.62396 11.7229 6.62963C11.674 6.63531 11.6398 6.67704 11.6467 6.72284C11.6535 6.76864 11.6987 6.80117 11.7477 6.7955Z" fill="var(--fill-0, #000088)"/>
<path d="M10.4546 8.48363L10.2375 7.53294L10.0506 7.10076L10.1244 7.56075L10.4546 8.48363Z" fill="var(--fill-0, #000088)"/>
</g>
</svg>
