<svg preserveAspectRatio="none" width="100%" height="100%" overflow="visible" style="display: block;" viewBox="0 0 20 15" fill="none" xmlns="http://www.w3.org/2000/svg">
<g id="Vector">
<path fill-rule="evenodd" clip-rule="evenodd" d="M0 0H20V15H0V0Z" fill="#229E45"/>
<path fill-rule="evenodd" clip-rule="evenodd" d="M10.0435 13.6249L19.4654 7.50927L9.98723 1.37489L0.534105 7.52177L10.0435 13.6249Z" fill="#F8E509"/>
<path fill-rule="evenodd" clip-rule="evenodd" d="M14.15 7.49995C14.15 9.69683 12.3656 11.4781 10.1625 11.4781C9.37518 11.4768 8.60594 11.2422 7.95198 10.8039C7.29802 10.3655 6.78871 9.7431 6.48843 9.01534C6.18815 8.28757 6.11038 7.48711 6.26496 6.71515C6.41953 5.94319 6.79951 5.23439 7.35686 4.67835C7.91421 4.12231 8.6239 3.744 9.39622 3.59124C10.1685 3.43849 10.9688 3.51814 11.6959 3.82013C12.4229 4.12212 13.0441 4.6329 13.481 5.28789C13.9178 5.94288 14.1506 6.71267 14.15 7.49995Z" fill="#2B49A3"/>
<path fill-rule="evenodd" clip-rule="evenodd" d="M8.85306 9.88434L8.72806 9.81247L8.60306 9.87497L8.63118 9.73434L8.53118 9.62809L8.67181 9.61247L8.74056 9.48747L8.79993 9.61872L8.93743 9.64372L8.83431 9.73747M11.5218 10.5593L11.3999 10.4875L11.2749 10.55L11.2999 10.4093L11.2031 10.3062L11.3437 10.2906L11.4093 10.1625L11.4718 10.2937L11.6093 10.3187L11.5031 10.4156M10.3718 9.47809L10.2656 9.41559L10.1562 9.47184L10.1812 9.34997L10.0937 9.25934L10.2187 9.24684L10.2749 9.13434L10.3249 9.24997L10.4468 9.27184L10.3531 9.35622M13.0718 9.09059L12.9656 9.02809L12.8562 9.08434L12.8812 8.96247L12.7968 8.87497L12.9187 8.86247L12.9749 8.75309L13.0249 8.86559L13.1437 8.88747L13.0531 8.96872M10.3249 8.28122L10.1999 8.21247L10.0749 8.27497L10.0999 8.13122L10.0031 8.02809L10.1437 8.01247L10.2093 7.88434L10.2718 8.01559L10.4093 8.04059L10.3031 8.14059M7.03431 7.04684L6.90931 6.97809L6.78431 7.04059L6.81556 6.89684L6.71243 6.79372L6.85618 6.77809L6.91868 6.64997L6.98118 6.78122L7.11868 6.80622L7.01556 6.90309M7.43118 8.69059L7.30618 8.61872L7.18118 8.68122L7.20931 8.54059L7.10931 8.43747L7.24993 8.41872L7.31556 8.29372L7.37806 8.42497L7.51556 8.44997L7.41243 8.54684M11.5374 6.44372L11.4249 6.38122L11.3124 6.43747L11.3374 6.31247L11.2499 6.21872L11.3749 6.20309L11.4343 6.09059L11.4874 6.20934L11.6124 6.23122L11.5187 6.31559M11.3093 7.51247L11.2249 7.46247L11.1343 7.50622L11.1531 7.40622L11.0843 7.33434L11.1843 7.32184L11.2312 7.23434L11.2718 7.32809L11.3656 7.34372L11.2968 7.41247M6.85306 8.98747L6.76868 8.94059L6.68431 8.98122L6.70306 8.88747L6.63743 8.81872L6.73118 8.80622L6.77493 8.72184L6.81556 8.80934L6.90931 8.82809L6.83743 8.89059M13.0937 9.36872L13.0249 9.33434L12.9562 9.36559L12.9718 9.29372L12.9187 9.24372L12.9937 9.23434L13.0312 9.17184L13.0624 9.23434L13.1406 9.24997L13.0812 9.29684" fill="#FFFFEF"/>
<path fill-rule="evenodd" clip-rule="evenodd" d="M6.85306 8.98747L6.76868 8.94059L6.68431 8.98122L6.70306 8.88747L6.63743 8.81872L6.73118 8.80622L6.77493 8.72184L6.81556 8.80934L6.90931 8.82809L6.83743 8.89059" fill="#FFFFEF"/>
<path fill-rule="evenodd" clip-rule="evenodd" d="M6.85306 8.98747L6.76868 8.94059L6.68431 8.98122L6.70306 8.88747L6.63743 8.81872L6.73118 8.80622L6.77493 8.72184L6.81556 8.80934L6.90931 8.82809L6.83743 8.89059M8.15931 8.98434L8.07806 8.94059L7.99368 8.98122L8.01243 8.88747L7.94681 8.81872L8.04056 8.80622L8.08431 8.72184L8.12493 8.80934L8.21868 8.82497L8.14681 8.89059M7.99681 9.42184L7.91556 9.37497L7.83118 9.41872L7.84993 9.32497L7.78431 9.25309L7.87806 9.24059L7.92181 9.15622L7.96243 9.24372L8.05618 9.26247L7.98431 9.32497M10.7156 8.63122L10.6343 8.58122L10.5468 8.62497L10.5656 8.53122L10.5031 8.45934L10.5968 8.44997L10.6406 8.36559L10.6781 8.45309L10.7718 8.46872L10.7031 8.53434M9.91868 8.62809L9.83431 8.58122L9.74993 8.62497L9.76868 8.53122L9.70618 8.45934L9.79993 8.44997L9.84368 8.36247L9.88118 8.45309L9.97493 8.46872L9.90618 8.53434M7.75618 8.35309L7.70306 8.32184L7.64993 8.34684L7.66243 8.28747L7.62181 8.24372L7.68118 8.23747L7.70618 8.18434L7.73118 8.24059L7.79056 8.24997L7.74681 8.29059M12.9906 9.70934L12.9093 9.66247L12.8249 9.70622L12.8437 9.61247L12.7781 9.54059L12.8718 9.52809L12.9156 9.44372L12.9562 9.53122L13.0499 9.54997L12.9781 9.61247M12.3281 9.79997L12.2593 9.75622L12.1874 9.79372L12.2031 9.71247L12.1499 9.65622L12.2281 9.64684L12.2656 9.57497L12.2968 9.64997L12.3749 9.66247L12.3156 9.71872M12.6406 9.79059L12.5781 9.75309L12.5124 9.78434L12.5249 9.71247L12.4749 9.65934L12.5468 9.64997L12.5812 9.58747L12.6124 9.64997L12.6843 9.66559L12.6312 9.71559M13.5406 9.00309L13.4781 8.97184L13.4156 9.00309L13.4312 8.93122L13.3812 8.87809L13.4531 8.86872L13.4843 8.80622L13.5156 8.87184L13.5812 8.88434L13.5312 8.93434M12.3187 10.2406L12.2406 10.1968L12.1562 10.2343L12.1749 10.1468L12.1124 10.0843L12.2062 10.075L12.2468 9.99684L12.2843 10.0781L12.3781 10.0937L12.3062 10.1531M12.3249 10.5968L12.2499 10.5531L12.1749 10.5937L12.1937 10.5062L12.1343 10.4437L12.2187 10.4312L12.2562 10.3531L12.2906 10.4343L12.3749 10.45L12.3124 10.5125M11.7187 9.79059L11.6593 9.75309L11.5968 9.78434L11.6093 9.71559L11.5624 9.66247L11.6312 9.65622L11.6624 9.59372L11.6937 9.65622L11.7624 9.66872L11.7124 9.71872M11.1562 9.79059L11.0937 9.75309L11.0312 9.78434L11.0468 9.71559L10.9968 9.66247L11.0687 9.65622L11.0999 9.59372L11.1312 9.65622L11.1968 9.66872L11.1468 9.71872M10.1968 8.94997L10.1343 8.91559L10.0718 8.94684L10.0874 8.87497L10.0374 8.82497L10.1062 8.81559L10.1374 8.75309L10.1687 8.81559L10.2374 8.83122L10.1874 8.87809M10.3031 10.6593L10.2531 10.6312L10.1968 10.6593L10.2093 10.5968L10.1687 10.5531L10.2281 10.5468L10.2562 10.4937L10.2812 10.55L10.3406 10.5593L10.2968 10.6M8.85306 7.89372L8.72806 7.82184L8.60306 7.88434L8.63118 7.74372L8.53118 7.64059L8.67181 7.62184L8.74056 7.49684L8.79993 7.62809L8.93743 7.65309L8.83431 7.74997" fill="#FFFFEF"/>
<path fill-rule="evenodd" clip-rule="evenodd" d="M13.8875 8.93127C13.9649 8.73039 14.0255 8.52343 14.0687 8.31252C11.95 6.45315 9.59059 5.50002 6.60934 5.6969C6.50121 5.90612 6.4123 6.12472 6.34371 6.35002C9.87496 6.01252 12.4687 7.57502 13.8875 8.93127Z" fill="white"/>
<path d="M12.9374 7.88745L13.0093 7.92808C12.9986 7.9493 12.9953 7.97351 12.9999 7.99683C13.0072 8.01944 13.0229 8.03843 13.0437 8.04995C13.0655 8.06558 13.0874 8.07495 13.1062 8.07183C13.1249 8.07183 13.1374 8.06245 13.1468 8.04995C13.1522 8.04166 13.1545 8.03165 13.153 8.02183C13.1505 8.01029 13.1451 7.99955 13.1374 7.99058C13.1312 7.9812 13.1155 7.95933 13.0905 7.93433C13.0648 7.90781 13.0456 7.87573 13.0343 7.84058C13.0265 7.81397 13.0285 7.78545 13.04 7.76021C13.0515 7.73497 13.0716 7.7147 13.0968 7.70308C13.1195 7.69359 13.1446 7.69141 13.1687 7.69683C13.198 7.7036 13.2257 7.71636 13.2499 7.73433C13.2937 7.76558 13.3218 7.79683 13.3312 7.83433C13.3355 7.85187 13.336 7.87012 13.3328 7.8879C13.3296 7.90567 13.3226 7.92256 13.3124 7.93745L13.2374 7.89058C13.2468 7.87183 13.2499 7.85308 13.2437 7.83745C13.2405 7.82183 13.228 7.8062 13.2062 7.7937C13.1901 7.78079 13.1705 7.77315 13.1499 7.77183C13.1442 7.77164 13.1386 7.77299 13.1337 7.77574C13.1287 7.7785 13.1246 7.78254 13.1218 7.78745C13.1155 7.79683 13.1155 7.8062 13.1187 7.8187C13.1218 7.8312 13.1374 7.8562 13.1687 7.88745C13.1999 7.9187 13.2187 7.94683 13.2312 7.96558C13.2423 7.98606 13.2474 8.00931 13.2457 8.03258C13.244 8.05584 13.2357 8.07814 13.2218 8.09683C13.2072 8.11807 13.1865 8.13441 13.1624 8.1437C13.139 8.15449 13.1128 8.15777 13.0874 8.15308C13.0593 8.14683 13.0312 8.13433 12.9999 8.11245C12.953 8.0812 12.9249 8.04683 12.9155 8.00933C12.9054 7.96681 12.9121 7.92199 12.9343 7.88433L12.9374 7.88745ZM12.5749 7.64995L12.653 7.69058C12.6434 7.71216 12.6412 7.73636 12.6468 7.75933C12.6548 7.78078 12.6703 7.79856 12.6905 7.80933C12.7155 7.82495 12.7343 7.8312 12.753 7.82808C12.7718 7.82808 12.7843 7.8187 12.7937 7.80308C12.7984 7.79564 12.8006 7.78687 12.7999 7.77808C12.7999 7.7687 12.7937 7.7562 12.7843 7.74683C12.7683 7.7275 12.7516 7.70874 12.7343 7.69058C12.6999 7.6562 12.678 7.62808 12.6718 7.60308C12.6667 7.587 12.6651 7.56999 12.6673 7.55326C12.6695 7.53652 12.6753 7.52046 12.6843 7.5062C12.6962 7.48692 12.7136 7.47167 12.7343 7.46245C12.7558 7.45255 12.7797 7.44929 12.803 7.45308C12.8319 7.45795 12.8596 7.46857 12.8843 7.48433C12.9312 7.51558 12.9593 7.54683 12.9687 7.5812C12.9744 7.59877 12.9762 7.61736 12.974 7.6357C12.9719 7.65404 12.9658 7.67169 12.9562 7.68745L12.878 7.6437C12.8874 7.62183 12.8905 7.6062 12.8843 7.59058C12.878 7.57495 12.8655 7.55933 12.8437 7.54683C12.8264 7.53442 12.8056 7.52785 12.7843 7.52808C12.7792 7.52843 12.7742 7.53003 12.7698 7.53276C12.7655 7.53548 12.7618 7.53924 12.7593 7.5437C12.753 7.55308 12.753 7.56245 12.7562 7.57495C12.7593 7.58745 12.778 7.61245 12.8093 7.6437C12.8405 7.67495 12.8624 7.69995 12.8718 7.7187C12.8843 7.7383 12.891 7.76107 12.891 7.78433C12.891 7.80759 12.8843 7.83036 12.8718 7.84995C12.8583 7.87175 12.8388 7.88914 12.8155 7.89995C12.7921 7.91074 12.7659 7.91402 12.7405 7.90933C12.7084 7.90389 12.6776 7.89221 12.6499 7.87495C12.6095 7.85342 12.5784 7.81785 12.5624 7.77495C12.5503 7.73323 12.5548 7.68846 12.5749 7.64995ZM12.1312 7.5312L12.3593 7.1562L12.6343 7.32808L12.5968 7.39058L12.3968 7.26558L12.3468 7.34995L12.5343 7.46558L12.4937 7.52808L12.3062 7.41245L12.2437 7.51558L12.453 7.64058L12.4155 7.70308L12.1343 7.5312H12.1312ZM11.4843 6.99995L11.5187 6.93745L11.6874 7.02183L11.6093 7.17808C11.5843 7.18433 11.553 7.18745 11.5155 7.18433C11.4795 7.18036 11.4446 7.16976 11.4124 7.15308C11.3746 7.13466 11.3423 7.10664 11.3187 7.07183C11.2972 7.03949 11.2862 7.00127 11.2874 6.96245C11.289 6.92205 11.2997 6.88253 11.3187 6.84683C11.3374 6.80925 11.3654 6.77701 11.3999 6.75308C11.4329 6.73024 11.4723 6.71823 11.5124 6.7187C11.5437 6.7187 11.5749 6.72808 11.6124 6.74995C11.6624 6.77183 11.6937 6.80308 11.7093 6.83745C11.7255 6.87158 11.7289 6.91044 11.7187 6.94683L11.6343 6.92183C11.6394 6.9009 11.6372 6.87882 11.628 6.85933C11.6187 6.84058 11.603 6.82808 11.578 6.81558C11.5635 6.80726 11.5473 6.80213 11.5306 6.80051C11.5139 6.79889 11.4971 6.80084 11.4812 6.8062C11.4499 6.81558 11.4218 6.8437 11.3999 6.88745C11.378 6.9312 11.3687 6.97183 11.378 7.0062C11.3824 7.02251 11.3902 7.03767 11.401 7.05062C11.4118 7.06358 11.4253 7.07402 11.4405 7.0812C11.4562 7.09058 11.4749 7.09683 11.4937 7.09683C11.5123 7.09966 11.5313 7.09966 11.5499 7.09683L11.5749 7.04683L11.4843 6.99995ZM8.66553 6.30308L8.72803 5.86558L8.85928 5.88745L8.89366 6.1937L9.01553 5.91245L9.14678 5.9312L9.08428 6.36245L8.99991 6.34995L9.05303 6.00933L8.91553 6.33745L8.83116 6.32495L8.79678 5.97183L8.74678 6.31558L8.66553 6.30308ZM8.22491 6.24995L8.26553 5.81245L8.58741 5.8437L8.58116 5.9187L8.34678 5.89683L8.33741 5.99058L8.55616 6.01245L8.54678 6.08745L8.32803 6.06558L8.31866 6.18433L8.56241 6.2062L8.55616 6.2812L8.22491 6.24995Z" fill="var(--fill-0, #309E3A)"/>
<path d="M6.76532 5.97813C6.76532 5.93125 6.77469 5.89688 6.78719 5.86563C6.79815 5.8434 6.81296 5.8233 6.83094 5.80625C6.84697 5.79009 6.8661 5.77733 6.88719 5.76875C6.91844 5.75938 6.94969 5.75313 6.98094 5.75313C7.04657 5.75313 7.09657 5.77813 7.13719 5.81563C7.15653 5.83952 7.17091 5.86702 7.1795 5.89653C7.18808 5.92604 7.1907 5.95697 7.18719 5.9875C7.18719 6.05625 7.16532 6.1125 7.12469 6.15313C7.10381 6.17242 7.07912 6.18712 7.05221 6.19627C7.02529 6.20543 6.99675 6.20882 6.96844 6.20625C6.94051 6.20654 6.91281 6.20114 6.88703 6.1904C6.86124 6.17965 6.83791 6.16379 6.81844 6.14375C6.77955 6.09773 6.76046 6.03819 6.76532 5.97813Z" fill="var(--fill-0, #309E3A)"/>
<path d="M6.85627 5.97804C6.85627 6.02492 6.86564 6.06242 6.88752 6.09054C6.90939 6.11554 6.93752 6.13117 6.97502 6.13117C6.99124 6.13231 7.00751 6.12981 7.02265 6.12386C7.03779 6.11792 7.0514 6.10867 7.06252 6.0968C7.08439 6.0718 7.09377 6.03429 7.09689 5.98117C7.09689 5.93117 7.09064 5.89367 7.06564 5.86867C7.05546 5.85607 7.04261 5.8459 7.02802 5.83887C7.01343 5.83184 6.99746 5.82815 6.98127 5.82805C6.96483 5.82752 6.94847 5.8306 6.93336 5.83708C6.91824 5.84356 6.90472 5.85328 6.89377 5.86554C6.86877 5.89054 6.85939 5.92804 6.85627 5.97804Z" fill="#F7FFFF"/>
<path d="M7.28121 6.20308L7.28746 5.76558H7.47496C7.52184 5.76558 7.55309 5.77183 7.57496 5.7812C7.59684 5.78745 7.61246 5.80308 7.62496 5.82183C7.63746 5.84058 7.64371 5.86558 7.64371 5.8937C7.64396 5.92377 7.63279 5.9528 7.61246 5.97495C7.58936 5.99659 7.55963 6.00981 7.52809 6.01245L7.57496 6.04995C7.58746 6.06245 7.60309 6.08745 7.62184 6.12183L7.67496 6.20933H7.56871L7.50621 6.10933L7.46246 6.04683C7.45489 6.03823 7.44519 6.03177 7.43434 6.02808C7.42012 6.02393 7.40539 6.02183 7.39059 6.02183H7.37184V6.20308H7.28121Z" fill="var(--fill-0, #309E3A)"/>
<path d="M7.37485 5.95308H7.43735C7.4811 5.95308 7.50922 5.95308 7.5186 5.94683C7.52797 5.94683 7.53735 5.93745 7.5436 5.9312C7.54985 5.92495 7.55297 5.90933 7.55297 5.89995C7.55297 5.8812 7.54985 5.8687 7.54047 5.86245C7.53422 5.85308 7.52172 5.84683 7.50922 5.8437H7.44672L7.37485 5.84058V5.95308Z" fill="white"/>
<path d="M7.78104 5.78737L7.94354 5.79674C7.97791 5.79674 8.00604 5.79987 8.02479 5.80612C8.04911 5.81494 8.07067 5.83003 8.08729 5.84987C8.10529 5.87172 8.11811 5.89736 8.12479 5.92487C8.13416 5.95299 8.13729 5.98737 8.13416 6.02799C8.13414 6.05989 8.12886 6.09156 8.11854 6.12174C8.10604 6.15299 8.08729 6.17799 8.06542 6.19674C8.04721 6.21174 8.02584 6.22243 8.00292 6.22799C7.98417 6.23424 7.95604 6.23424 7.92479 6.23424L7.75916 6.22487L7.78104 5.78737Z" fill="var(--fill-0, #309E3A)"/>
<path d="M7.86565 5.86565L7.85003 6.15627H7.96878C7.9844 6.15627 7.9969 6.15002 8.00628 6.14065C8.01565 6.13127 8.02503 6.11877 8.03128 6.10002C8.03753 6.08127 8.04378 6.05315 8.04378 6.01877L8.04065 5.94065C8.03619 5.92417 8.02759 5.90911 8.01565 5.8969C8.00528 5.88646 7.99235 5.87892 7.97815 5.87502C7.95452 5.86976 7.93047 5.86662 7.90628 5.86565H7.86565Z" fill="white"/>
<path d="M9.92507 6.56869L10.0282 6.14369L10.1657 6.17494L10.2657 6.20619C10.2876 6.21869 10.3063 6.23744 10.3157 6.26557C10.3282 6.29057 10.3282 6.31869 10.3219 6.35307C10.3157 6.37807 10.3063 6.39994 10.2907 6.41557C10.2792 6.42929 10.2649 6.44032 10.2487 6.44788C10.2325 6.45544 10.2148 6.45935 10.1969 6.45932C10.1751 6.45932 10.1438 6.45307 10.1032 6.44369L10.0501 6.42807L10.0126 6.59057L9.92507 6.56869Z" fill="var(--fill-0, #309E3A)"/>
<path d="M10.0935 6.2374L10.0685 6.35615L10.1154 6.36865C10.1466 6.3749 10.1716 6.38115 10.1841 6.37802C10.1963 6.37633 10.2076 6.37092 10.2166 6.36253C10.2255 6.35413 10.2316 6.34317 10.2341 6.33115C10.2341 6.31552 10.2341 6.30302 10.2279 6.29052C10.221 6.27782 10.21 6.26788 10.1966 6.2624L10.1372 6.24677L10.0966 6.2374H10.0935Z" fill="white"/>
<path d="M10.3313 6.69059L10.4782 6.27809L10.65 6.34059C10.6969 6.35622 10.725 6.37184 10.7438 6.38434C10.7594 6.39997 10.7719 6.41559 10.775 6.44059C10.7782 6.46559 10.7813 6.48747 10.775 6.51247C10.7625 6.54372 10.7438 6.56559 10.7188 6.58122C10.6938 6.59372 10.6625 6.59684 10.625 6.59059C10.6375 6.60622 10.65 6.62184 10.6563 6.64059L10.6813 6.72497L10.7 6.82184L10.6032 6.78747L10.5719 6.67497C10.5662 6.64952 10.5589 6.62447 10.55 6.59997C10.5459 6.59024 10.5395 6.58167 10.5313 6.57497C10.525 6.56559 10.5125 6.55934 10.4907 6.55309L10.475 6.54684L10.4125 6.72184L10.3313 6.69059Z" fill="var(--fill-0, #309E3A)"/>
<path d="M10.4997 6.48125L10.5591 6.50313C10.5997 6.51875 10.6247 6.525 10.6372 6.525C10.6466 6.525 10.656 6.525 10.6654 6.51563C10.6747 6.50938 10.681 6.5 10.6841 6.4875C10.6904 6.475 10.6904 6.4625 10.6841 6.45C10.6795 6.43789 10.6706 6.42789 10.6591 6.42188L10.5341 6.37813L10.4966 6.48125H10.4997Z" fill="white"/>
<path d="M10.8438 6.67499C10.8546 6.6384 10.8726 6.60438 10.8969 6.57499C10.9127 6.55614 10.9318 6.54026 10.9532 6.52812C10.9726 6.51717 10.9937 6.50977 11.0157 6.50624C11.0469 6.50624 11.0782 6.50624 11.1126 6.51874C11.1405 6.52565 11.1666 6.53842 11.1893 6.5562C11.2119 6.57398 11.2305 6.59636 11.2438 6.62187C11.2688 6.67187 11.2688 6.73124 11.2501 6.79999C11.2346 6.85905 11.1964 6.9096 11.1438 6.94062C11.0969 6.96874 11.0407 6.97187 10.9813 6.95312C10.9535 6.94602 10.9274 6.93318 10.9048 6.91542C10.8822 6.89766 10.8635 6.87538 10.8501 6.84999C10.8375 6.82267 10.8305 6.79315 10.8295 6.76311C10.8284 6.73308 10.8333 6.70313 10.8438 6.67499Z" fill="var(--fill-0, #309E3A)"/>
<path d="M10.9316 6.70005C10.9191 6.74693 10.916 6.78755 10.9316 6.8188C10.9472 6.85005 10.9691 6.8688 11.0035 6.8813C11.0347 6.89068 11.066 6.88755 11.0972 6.8688C11.1285 6.85318 11.1472 6.8188 11.1629 6.7688C11.1785 6.72193 11.1785 6.68443 11.1629 6.65318C11.1567 6.63835 11.1473 6.62507 11.1355 6.61426C11.1236 6.60346 11.1095 6.59541 11.0941 6.59068C11.0787 6.58537 11.0624 6.58346 11.0462 6.58508C11.03 6.58669 11.0144 6.5918 11.0004 6.60005C10.9691 6.6188 10.9472 6.65005 10.9316 6.70005Z" fill="white"/>
<path d="M11.697 7.2843L11.897 6.8968L12.0626 6.98118C12.0938 6.99616 12.1223 7.01622 12.147 7.04055C12.1626 7.05618 12.172 7.07493 12.172 7.09993C12.172 7.12493 12.172 7.1468 12.1595 7.16868C12.1474 7.19678 12.1251 7.21916 12.097 7.23118C12.0657 7.23743 12.0345 7.23743 12.0001 7.22493C12.0126 7.24368 12.0188 7.26243 12.0251 7.27805C12.0313 7.2968 12.0345 7.32493 12.0376 7.36555L12.0438 7.46555L11.9501 7.41868L11.9376 7.30305C11.9361 7.27684 11.933 7.25075 11.9282 7.22493C11.9261 7.21324 11.9207 7.2024 11.9126 7.19368L11.8751 7.1718L11.8595 7.16243L11.7751 7.32493L11.697 7.2843Z" fill="var(--fill-0, #309E3A)"/>
<path d="M11.8908 7.09997L11.9501 7.13122C11.9876 7.14997 12.0126 7.16247 12.022 7.16247C12.0314 7.16247 12.0439 7.16247 12.0533 7.15622C12.0626 7.15309 12.0689 7.14372 12.0751 7.13122C12.0814 7.11872 12.0845 7.10622 12.0814 7.09372C12.0775 7.08128 12.0699 7.07035 12.0595 7.06247C12.0412 7.05124 12.0225 7.04082 12.0033 7.03122L11.9408 6.99997L11.8908 7.09997Z" fill="white"/>
<path d="M13.3156 8.0843C13.3359 8.05217 13.3624 8.02452 13.3938 8.00305C13.4148 7.98959 13.4381 7.98006 13.4625 7.97492C13.4852 7.97029 13.5086 7.97029 13.5313 7.97492C13.5625 7.98117 13.5906 7.99367 13.6188 8.01242C13.6431 8.02757 13.664 8.04762 13.6801 8.0713C13.6963 8.09497 13.7073 8.12175 13.7125 8.14992C13.7219 8.20305 13.7063 8.26242 13.6688 8.3218C13.6374 8.37344 13.5868 8.41053 13.5281 8.42492C13.5002 8.43097 13.4712 8.43103 13.4432 8.4251C13.4152 8.41918 13.3888 8.4074 13.3656 8.39055C13.3413 8.3754 13.3204 8.35535 13.3043 8.33167C13.2881 8.308 13.2771 8.28122 13.2719 8.25305C13.2625 8.1968 13.2781 8.14055 13.3156 8.0843Z" fill="var(--fill-0, #309E3A)"/>
<path d="M13.3941 8.13436C13.3628 8.17499 13.3534 8.21249 13.3597 8.24687C13.362 8.26269 13.3676 8.27785 13.3763 8.29132C13.3849 8.30479 13.3963 8.31627 13.4097 8.32499C13.4409 8.34687 13.4722 8.35312 13.5034 8.34374C13.5347 8.33437 13.5659 8.31249 13.5941 8.26874C13.6222 8.22499 13.6347 8.18749 13.6284 8.15624C13.6253 8.12499 13.6066 8.09686 13.5784 8.07499C13.5503 8.05311 13.5159 8.04999 13.4847 8.05936C13.4534 8.06561 13.4222 8.09061 13.3909 8.13436H13.3941Z" fill="white"/>
<path d="M9.43134 6.39062L9.50321 6.08437L9.72821 6.13749L9.71884 6.18749L9.55322 6.14999L9.53759 6.21874L9.69072 6.25312L9.67822 6.30624L9.52509 6.26874L9.50634 6.35312L9.67822 6.39374L9.66571 6.44374L9.43134 6.39062Z" fill="var(--fill-0, #309E3A)"/>
</g>
</svg>
