<svg preserveAspectRatio="none" width="100%" height="100%" overflow="visible" style="display: block;" viewBox="0 0 22 15" fill="none" xmlns="http://www.w3.org/2000/svg">
<g id="Vector">
<path d="M5.30661 0H15.9222V15H5.30349L5.30661 0Z" fill="white"/>
<path d="M0 0H5.30661L5.30625 15H0V0ZM15.9222 0H21.2281V15H15.925L15.9222 0ZM6.89688 7.25L6.48125 7.3875L8.4 9.075C8.54688 9.50312 8.35 9.63125 8.225 9.85625L10.3063 9.59375L10.2563 11.6875L10.6906 11.6781L10.5938 9.59687L12.6781 9.84687C12.55 9.575 12.4344 9.43125 12.5531 8.99687L14.4688 7.40312L14.1344 7.27812C13.8594 7.06562 14.2531 6.25937 14.3094 5.75C14.3094 5.75 13.1938 6.13437 13.1219 5.93125L12.8344 5.38437L11.8156 6.50312C11.7063 6.53125 11.6594 6.4875 11.6313 6.39375L12.1 4.05625L11.3563 4.475C11.2938 4.50312 11.2313 4.47812 11.1938 4.40625L10.475 2.96875L9.7375 4.4625C9.68125 4.51562 9.625 4.52187 9.58125 4.48437L8.86563 4.0875L9.29375 6.40312C9.25938 6.49687 9.17813 6.52187 9.08438 6.47187L8.10938 5.36875C7.98438 5.57187 7.89688 5.90312 7.72813 5.97812C7.55938 6.05 6.99375 5.8375 6.61563 5.75937C6.74688 6.22187 7.14688 6.99687 6.89688 7.25Z" fill="var(--fill-0, #D52B1E)"/>
</g>
</svg>
