<svg width="16" height="16" viewBox="0 0 16 16" fill="none" xmlns="http://www.w3.org/2000/svg">
<g clip-path="url(#clip0_4316_39228)">
<path d="M14.6667 0H1.33333C0.596954 0 0 0.596954 0 1.33333V14.6667C0 15.403 0.596954 16 1.33333 16H14.6667C15.403 16 16 15.403 16 14.6667V1.33333C16 0.596954 15.403 0 14.6667 0Z" fill="url(#paint0_linear_4316_39228)"/>
<path fill-rule="evenodd" clip-rule="evenodd" d="M7.99792 1.33438C8.27172 1.33438 8.51765 1.50176 8.61812 1.75645L9.97519 5.19747C10.1127 5.54612 10.1441 5.61292 10.1809 5.66427C10.2234 5.72362 10.2753 5.77559 10.3347 5.8181C10.3861 5.85488 10.4529 5.88624 10.8015 6.02375L14.2425 7.38084C14.4972 7.48131 14.6646 7.72724 14.6646 8.00104C14.6646 8.27484 14.4972 8.52078 14.2425 8.62124L10.8015 9.97831C10.4529 10.1158 10.3861 10.1472 10.3347 10.184C10.2753 10.2265 10.2234 10.2784 10.1809 10.3378C10.1441 10.3892 10.1127 10.456 9.97519 10.8046L8.61812 14.2456C8.51765 14.5003 8.27172 14.6677 7.99792 14.6677C7.72412 14.6677 7.47818 14.5003 7.37772 14.2456L6.02062 10.8046C5.88312 10.456 5.85175 10.3892 5.81497 10.3378C5.77246 10.2784 5.7205 10.2265 5.66114 10.184C5.60979 10.1472 5.543 10.1158 5.19434 9.97831L1.75332 8.62124C1.49864 8.52078 1.33125 8.27484 1.33125 8.00104C1.33125 7.72724 1.49864 7.48131 1.75332 7.38084L5.19434 6.02375C5.543 5.88624 5.60979 5.85488 5.66114 5.8181C5.7205 5.77559 5.77246 5.72362 5.81497 5.66427C5.85175 5.61292 5.88312 5.54612 6.02062 5.19747L7.37772 1.75645C7.47818 1.50176 7.72412 1.33438 7.99792 1.33438ZM7.99792 3.81812L7.26098 5.68666C7.25378 5.70486 7.24672 5.72292 7.23965 5.74084C7.13578 6.00501 7.04418 6.23787 6.89898 6.44062C6.77145 6.61868 6.61555 6.77458 6.43749 6.90211C6.23475 7.04731 6.00188 7.13891 5.73772 7.24278C5.7198 7.24984 5.70174 7.25691 5.68353 7.26411L3.81499 8.00104L5.68353 8.73798C5.70174 8.74518 5.7198 8.75224 5.73772 8.75931C6.00188 8.86318 6.23475 8.95478 6.43749 9.09998C6.61555 9.22751 6.77145 9.38344 6.89898 9.56144C7.04418 9.76424 7.13578 9.99711 7.23965 10.2612C7.24672 10.2792 7.25378 10.2972 7.26098 10.3154L7.99792 12.184L8.73485 10.3154C8.74205 10.2972 8.74912 10.2792 8.75618 10.2612C8.86005 9.99704 8.95165 9.76424 9.09685 9.56144C9.22438 9.38344 9.38032 9.22751 9.55832 9.09998C9.76112 8.95478 9.99392 8.86318 10.2581 8.75931C10.2761 8.75224 10.2941 8.74518 10.3123 8.73798L12.1809 8.00104L10.3123 7.26411C10.2941 7.25691 10.2761 7.24984 10.2581 7.24278C9.99398 7.13891 9.76112 7.04731 9.55832 6.90211C9.38032 6.77458 9.22438 6.61868 9.09685 6.44062C8.95165 6.23788 8.86005 6.00501 8.75618 5.74085C8.74912 5.72293 8.74205 5.70486 8.73485 5.68666L7.99792 3.81812Z" fill="white"/>
</g>
<defs>
<linearGradient id="paint0_linear_4316_39228" x1="8" y1="0" x2="8" y2="16" gradientUnits="userSpaceOnUse">
<stop stop-color="#CB00C7"/>
<stop offset="0.5" stop-color="#7137D7"/>
<stop offset="1" stop-color="#0988F9"/>
</linearGradient>
<clipPath id="clip0_4316_39228">
<rect width="16" height="16" fill="white"/>
</clipPath>
</defs>
</svg>
