<svg width="14" height="16" viewBox="0 0 14 16" fill="none" xmlns="http://www.w3.org/2000/svg">
<path d="M3.66667 6.66634V4.66634C3.66667 3.78229 4.01786 2.93444 4.64298 2.30932C5.2681 1.6842 6.11595 1.33301 7 1.33301C7.88406 1.33301 8.7319 1.6842 9.35702 2.30932C9.98214 2.93444 10.3333 3.78229 10.3333 4.66634V6.66634M7.66667 10.6663C7.66667 11.0345 7.36819 11.333 7 11.333C6.63181 11.333 6.33333 11.0345 6.33333 10.6663C6.33333 10.2982 6.63181 9.99967 7 9.99967C7.36819 9.99967 7.66667 10.2982 7.66667 10.6663ZM2.33333 6.66634H11.6667C12.403 6.66634 13 7.26329 13 7.99967V13.333C13 14.0694 12.403 14.6663 11.6667 14.6663H2.33333C1.59695 14.6663 1 14.0694 1 13.333V7.99967C1 7.26329 1.59695 6.66634 2.33333 6.66634Z" stroke="#0A0A0A" stroke-width="1.5" stroke-linecap="round" stroke-linejoin="round"/>
</svg>
