<svg preserveAspectRatio="none" width="100%" height="100%" overflow="visible" style="display: block;" viewBox="0 0 351 749" fill="none" xmlns="http://www.w3.org/2000/svg">
<path id="Vector" d="M322.581 1.06006H322.319L321.926 1.01861C321.464 1.00013 321.038 1 320.646 1H278.723C276.325 1.12011 274.389 2.95417 274.146 5.29169C274.137 5.44876 274.128 5.61053 274.128 5.78145V5.84151C273.553 17.9818 263.413 27.6459 250.997 27.6459H179.433H171.327H99.7618C87.3459 27.6459 77.2019 17.9818 76.627 5.84151V5.78596C76.627 5.61504 76.6175 5.45789 76.6081 5.2962C76.365 2.95406 74.4297 1.1249 72.0316 1.00479H30.1092C29.7165 1.00479 29.2912 1.00464 28.8284 1.02312L28.4355 1.06485H28.1739C12.911 2.05345 1 14.6002 1 29.7617V718.448C1 733.351 12.7707 745.948 27.7904 747.117C27.94 747.126 28.0618 747.136 28.1833 747.145H28.286L28.3656 747.154H28.5385L28.5993 747.164C29.1042 747.182 29.609 747.205 30.1092 747.205H171.327H179.433H320.65C321.155 747.205 321.66 747.187 322.16 747.164L322.221 747.154H322.394L322.473 747.145H322.576C322.698 747.136 322.819 747.126 322.969 747.117C337.989 745.953 349.759 733.351 349.759 718.448V29.7617C349.755 14.6002 337.839 2.04865 322.581 1.06006Z" fill="var(--fill-0, white)" stroke="var(--stroke-0, #1E293B)" stroke-width="2" stroke-miterlimit="10"/>
</svg>
