<svg preserveAspectRatio="none" width="100%" height="100%" overflow="visible" style="display: block;" viewBox="0 0 402 798" fill="none" xmlns="http://www.w3.org/2000/svg">
<g id="Group">
<path id="Vector" d="M393.597 54.6516V743.347C393.597 745.768 393.41 748.147 393.059 750.485C392.961 751.058 392.863 751.639 392.751 752.203C392.195 755.099 391.362 757.904 390.287 760.583C390.082 761.133 389.848 761.687 389.61 762.228C388.1 765.614 386.197 768.801 383.963 771.735C383.743 772.007 383.523 772.298 383.303 772.566C381.761 774.511 380.041 776.317 378.213 778.004C377.469 778.687 376.703 779.334 375.913 779.962C375.637 780.203 375.357 780.415 375.071 780.623C374.23 781.274 373.365 781.889 372.477 782.485C372.421 782.526 372.369 782.573 372.313 782.605C371.766 782.951 371.219 783.298 370.672 783.63C370.06 784 369.433 784.356 368.812 784.702C368.176 785.039 367.54 785.372 366.895 785.686C366.577 785.839 366.25 786 365.932 786.139C365.605 786.3 365.278 786.453 364.946 786.582C363.95 787.016 362.945 787.404 361.917 787.774C361.239 788.023 360.547 788.25 359.86 788.453C359.509 788.56 359.159 788.67 358.808 788.767C357.747 789.049 356.672 789.317 355.592 789.534C355.241 789.608 354.881 789.687 354.507 789.751C354.133 789.816 353.773 789.881 353.413 789.936C352.679 790.056 351.936 790.162 351.193 790.241C350.669 790.315 350.141 790.347 349.618 790.393C349.178 790.426 348.743 790.449 348.304 790.467C347.486 790.509 346.672 790.532 345.84 790.532H55.2994C54.458 790.532 53.6352 790.509 52.8171 790.467C52.3777 790.444 51.9429 790.426 51.5035 790.393C50.648 790.329 49.8067 790.25 48.9559 790.153C49.2831 790.186 49.601 790.209 49.9282 790.241C26.1154 787.589 7.5428 767.572 7.5428 743.347V54.6516C7.5428 29.4655 27.6252 8.82038 52.8171 7.53151H52.8499C53.6586 7.48993 54.4673 7.46694 55.2994 7.46694H345.84C346.672 7.46694 347.472 7.48993 348.29 7.53151H348.299C348.739 7.5546 349.173 7.57332 349.613 7.60566C350.029 7.638 350.464 7.67934 350.894 7.71168C374.861 10.2247 393.597 30.3155 393.597 54.6516Z" fill="var(--fill-0, white)" stroke="var(--stroke-0, #1E293B)" stroke-width="2" stroke-miterlimit="10"/>
<path id="Vector_2" d="M345.852 1H55.3013C25.3178 1 1 25.0174 1 54.6522V743.348C1 772.978 25.3178 797 55.3013 797H345.852C375.835 797 400.153 772.983 400.153 743.348V54.6522C400.153 25.0174 375.835 1 345.852 1Z" fill="var(--fill-0, white)" stroke="var(--stroke-0, #1E293B)" stroke-width="2" stroke-miterlimit="10"/>
</g>
</svg>
