<svg width="17" height="16" viewBox="0 0 17 16" fill="none" xmlns="http://www.w3.org/2000/svg">
<path d="M9.83268 2.9585C10.7301 2.9585 11.4577 2.23096 11.4577 1.3335H12.2077C12.2077 2.23096 12.9352 2.9585 13.8327 2.9585V3.7085C12.9352 3.7085 12.2077 4.43604 12.2077 5.3335H11.4577C11.4577 4.43604 10.7301 3.7085 9.83268 3.7085V2.9585ZM1.16602 7.3335C3.37516 7.3335 5.16602 5.54264 5.16602 3.3335H6.49935C6.49935 5.54264 8.29022 7.3335 10.4993 7.3335V8.66683C8.29022 8.66683 6.49935 10.4577 6.49935 12.6668H5.16602C5.16602 10.4577 3.37516 8.66683 1.16602 8.66683V7.3335ZM11.9993 9.3335C11.9993 10.5301 11.0293 11.5002 9.83268 11.5002V12.5002C11.0293 12.5002 11.9993 13.4702 11.9993 14.6668H12.9993C12.9993 13.4702 13.9694 12.5002 15.166 12.5002V11.5002C13.9694 11.5002 12.9993 10.5301 12.9993 9.3335H11.9993Z" fill="#EAB308"/>
</svg>
