<svg preserveAspectRatio="none" width="100%" height="100%" overflow="visible" style="display: block;" viewBox="0 0 18 20" fill="none" xmlns="http://www.w3.org/2000/svg">
<path id="Vector" d="M16.5984 16.3141C16.0697 16.0972 15.6342 15.7556 15.6658 15.1013C15.6965 14.448 15.1986 14.015 15.1986 14.015C15.1986 14.015 15.6342 12.5845 15.2294 11.4033C14.8254 10.2204 13.4888 8.32531 12.4631 6.8956C11.4391 5.46507 12.3085 3.81673 11.3767 1.7038C10.4432 -0.409119 8.01942 -0.285272 6.7136 0.616579C5.40691 1.51677 5.81088 3.75437 5.87237 4.8134C5.93473 5.86899 5.90056 6.62142 5.78012 6.89473C5.65714 7.16804 4.81674 8.1707 4.25649 9.00936C3.69708 9.84806 3.29312 11.5894 2.88745 12.3043C2.48348 13.0191 2.7636 13.6716 2.7636 13.6716C2.7636 13.6716 2.48348 13.7639 2.26568 14.2328C2.04787 14.6973 1.61318 14.9151 0.83601 15.0689C0.0588382 15.2243 0.058838 15.7239 0.245005 16.2834C0.432042 16.8419 0.245876 17.1545 0.0280742 17.8676C-0.189727 18.5808 0.898369 18.8002 1.95483 18.9224C3.01216 19.0479 4.1933 19.732 5.18915 19.8559C6.18242 19.9806 6.49414 19.1726 6.49414 19.1726C6.49414 19.1726 7.61296 18.9224 8.79327 18.8933C9.97528 18.8617 11.0924 19.1419 11.0924 19.1419C11.0924 19.1419 11.3102 19.6389 11.7142 19.8558C12.119 20.0736 12.9893 20.1052 13.5487 19.5159C14.1089 18.9241 15.601 18.1793 16.4396 17.7122C17.2808 17.2442 17.127 16.5302 16.5984 16.3141ZM9.32354 2.60573C9.85646 2.60573 10.2869 3.13438 10.2869 3.78604C10.2869 4.24893 10.0709 4.64779 9.75569 4.84163C9.6754 4.80663 9.59087 4.77076 9.50119 4.73232C9.6908 4.63836 9.82573 4.39669 9.82573 4.11482C9.82573 3.7476 9.59855 3.4495 9.31756 3.4495C9.04001 3.4495 8.81195 3.74843 8.81195 4.11482C8.81195 4.25063 8.84442 4.38129 8.89993 4.48803C8.73423 4.42226 8.58136 4.36078 8.46179 4.31552C8.3969 4.15667 8.36016 3.97732 8.36016 3.786C8.36016 3.13438 8.79061 2.60573 9.32354 2.60573ZM9.25437 5.09444C9.52083 5.18669 9.81718 5.36006 9.78646 5.5317C9.75486 5.70421 9.61478 5.70421 9.25437 5.92458C8.89312 6.14322 8.1108 6.62831 7.86053 6.6599C7.6086 6.6915 7.46852 6.55059 7.20206 6.37891C6.9356 6.20641 6.43427 5.79729 6.56065 5.57953C6.56065 5.57953 6.95096 5.2806 7.12264 5.12433C7.29514 4.96718 7.73415 4.59224 8.00061 4.64094C8.26707 4.68619 8.98791 5.00048 9.25437 5.09444ZM6.8519 2.79277C7.2721 2.79277 7.61371 3.29323 7.61371 3.91072C7.61371 4.02431 7.60262 4.12935 7.58124 4.23099C7.47878 4.26599 7.37457 4.32237 7.2738 4.40777C7.22612 4.44674 7.17941 4.48689 7.13372 4.52818C7.20036 4.4035 7.22681 4.22584 7.19691 4.03881C7.14053 3.70147 6.91592 3.45548 6.69301 3.49052C6.47097 3.52897 6.33687 3.83213 6.39325 4.1712C6.45047 4.51028 6.67425 4.75623 6.89628 4.71949C6.90911 4.71692 6.92107 4.71351 6.93386 4.70923C6.82541 4.81344 6.72548 4.90312 6.62384 4.9791C6.3164 4.83649 6.09092 4.41201 6.09092 3.90981C6.09096 3.2924 6.4317 2.79277 6.8519 2.79277ZM6.03117 18.4997C5.93211 18.9455 5.41028 19.2691 5.41028 19.2691C4.93714 19.4177 3.6219 18.8472 3.02574 18.597C2.43046 18.3502 0.914523 18.2733 0.715529 18.053C0.518237 17.8275 0.81459 17.3313 0.890609 16.8607C0.964054 16.3867 0.742016 16.0903 0.815462 15.7667C0.890609 15.4447 1.8591 15.4447 2.23064 15.2218C2.60384 14.9972 2.67816 14.3515 2.97621 14.1782C3.27427 14.0031 3.82002 14.624 4.04376 14.9733C4.26667 15.3191 5.11131 16.8103 5.45894 17.1827C5.8074 17.5551 6.13024 18.0538 6.03117 18.4997ZM11.5287 14.1679C11.439 14.606 11.439 16.1894 11.439 16.1894C11.439 16.1894 10.4757 17.5243 8.98193 17.743C7.4899 17.9616 6.74345 17.8044 6.74345 17.8044L5.90475 16.8419C5.90475 16.8419 6.55638 16.7471 6.46416 16.0947C6.37021 15.4422 4.47509 14.5403 4.13261 13.7315C3.79183 12.9244 4.07112 11.5554 4.50668 10.8713C4.94141 10.188 5.21983 8.69685 5.6554 8.19806C6.09096 7.70271 6.43174 6.64537 6.2763 6.17822C6.2763 6.17822 7.20891 7.29787 7.86057 7.11253C8.51307 6.9255 9.97607 5.83657 10.1921 6.02448C10.4091 6.21151 12.2743 10.3135 12.4596 11.6194C12.6467 12.9244 12.3349 13.9185 12.3349 13.9185C12.3349 13.9185 11.6209 13.7323 11.5287 14.1679ZM16.2994 17.0964C16.0091 17.3629 14.3932 18.0154 13.9089 18.5244C13.4272 19.0291 12.7978 19.44 12.4126 19.3204C12.0249 19.1982 11.6875 18.6679 11.8566 17.8941C12.0249 17.1229 12.1709 16.2774 12.147 15.794C12.1231 15.3106 12.0249 14.6572 12.147 14.5607C12.2674 14.4668 12.4596 14.5138 12.4596 14.5138C12.4596 14.5138 12.3648 15.4302 12.9191 15.6736C13.4733 15.9127 14.271 15.5771 14.5127 15.3337C14.7553 15.0937 14.9244 14.7316 14.9244 14.7316C14.9244 14.7316 15.1652 14.8537 15.1413 15.2389C15.1174 15.6249 15.3095 16.1818 15.6734 16.3739C16.0347 16.5644 16.5898 16.8317 16.2994 17.0964Z" fill="var(--fill-0, #A3A3A3)"/>
</svg>
