<svg preserveAspectRatio="none" width="100%" height="100%" overflow="visible" style="display: block;" viewBox="0 0 20 20" fill="none" xmlns="http://www.w3.org/2000/svg">
<path id="Vector" d="M20 10C20 15.5224 15.523 20 10 20C4.477 20 0 15.5224 0 10C0 4.4771 4.47735 0 10 0C15.523 0 20 4.4771 20 10ZM3.2003 8.6642C2.46265 8.6642 1.86515 9.2623 1.86515 10C1.86515 10.7372 2.46265 11.3349 3.2003 11.3349C3.9375 11.3349 4.5353 10.7372 4.5353 10C4.5353 9.2622 3.9375 8.6642 3.2003 8.6642ZM12.7327 14.7325C12.0944 15.1015 11.8753 15.9175 12.2444 16.5558C12.6127 17.1942 13.4286 17.4137 14.0672 17.0448C14.7057 16.6759 14.9247 15.8595 14.5561 15.2208C14.1874 14.5832 13.3711 14.3644 12.7327 14.7325ZM6.10035 10C6.10035 8.6808 6.75565 7.5152 7.7586 6.80915L6.7825 5.174C5.6142 5.955 4.745 7.1485 4.384 8.545C4.8055 8.8895 5.07515 9.4131 5.07515 10C5.07515 10.586 4.80545 11.1097 4.38395 11.4543C4.74485 12.8516 5.61405 14.0448 6.78245 14.826L7.75855 13.1903C6.75555 12.4848 6.10035 11.32 6.10035 10ZM10 6.09975C12.0375 6.09975 13.7088 7.66175 13.8843 9.654L15.787 9.6261C15.6932 8.1551 15.0508 6.83495 14.0635 5.86435C13.5558 6.05565 12.9695 6.02685 12.4627 5.7342C11.9549 5.4412 11.6366 4.9472 11.5496 4.4104C11.0561 4.27455 10.537 4.2005 10 4.2005C9.07722 4.2005 8.20432 4.41685 7.4296 4.80035L8.35722 6.46275C8.85672 6.23045 9.41312 6.09975 10 6.09975ZM10 13.8995C9.41312 13.8995 8.85662 13.7691 8.35752 13.537L7.42965 15.1991C8.20452 15.5831 9.07722 15.8004 10 15.8004C10.537 15.8004 11.0565 15.7255 11.5496 15.5888C11.6366 15.0526 11.9551 14.5586 12.4628 14.2652C12.97 13.9726 13.5559 13.9435 14.0636 14.1349C15.0509 13.1642 15.6932 11.8441 15.7871 10.3732L13.8836 10.3456C13.7089 12.338 12.0375 13.8995 10 13.8995ZM12.7324 5.26675C13.371 5.6349 14.1873 5.4169 14.5556 4.77845C14.9247 4.1396 14.7061 3.32395 14.0673 2.95505C13.4286 2.58605 12.6128 2.8048 12.2437 3.44345C11.8753 4.08195 12.0944 4.898 12.7324 5.26675Z" fill="var(--fill-0, #A3A3A3)"/>
</svg>
