<svg preserveAspectRatio="none" width="100%" height="100%" overflow="visible" style="display: block;" viewBox="0 0 19 17" fill="none" xmlns="http://www.w3.org/2000/svg">
<path id="Vector" d="M14.3333 16C14.3333 14.2319 13.631 12.5362 12.3807 11.286C11.1305 10.0357 9.43478 9.33333 7.66667 9.33333M7.66667 9.33333C5.89856 9.33333 4.20286 10.0357 2.95262 11.286C1.70238 12.5362 1 14.2319 1 16M7.66667 9.33333C9.96785 9.33333 11.8333 7.46785 11.8333 5.16667C11.8333 2.86548 9.96785 1 7.66667 1C5.36548 1 3.5 2.86548 3.5 5.16667C3.5 7.46785 5.36548 9.33333 7.66667 9.33333ZM17.6667 15.1666C17.6667 12.3583 16 9.74996 14.3334 8.49996C14.8812 8.08893 15.3193 7.5492 15.6088 6.92852C15.8984 6.30784 16.0305 5.62535 15.9934 4.94146C15.9563 4.25757 15.7512 3.59336 15.3963 3.00763C15.0413 2.42189 14.5474 1.93268 13.9584 1.58329" stroke="var(--stroke-0, #0A0A0A)" stroke-width="2" stroke-linecap="round" stroke-linejoin="round"/>
</svg>
