<svg width="16" height="15" viewBox="0 0 16 15" fill="none" xmlns="http://www.w3.org/2000/svg">
<path d="M11.9997 11.3202H8.00634C7.27301 11.3202 6.70634 11.9468 6.35301 12.5868C6.07331 13.1117 5.6262 13.5279 5.08276 13.7695C4.53931 14.011 3.93072 14.064 3.35372 13.9199C2.77673 13.7759 2.26444 13.4431 1.89831 12.9744C1.53217 12.5058 1.33319 11.9282 1.33301 11.3335C1.33967 10.8668 1.46634 10.4002 1.71301 10.0002M3.99967 11.3335L6.08634 7.48012C6.43967 6.83345 6.15301 6.02679 5.75301 5.41345C5.56422 5.11152 5.43781 4.77484 5.38125 4.42326C5.32468 4.07168 5.33911 3.71234 5.42367 3.36643C5.50823 3.02052 5.66121 2.69505 5.8736 2.40922C6.08598 2.12339 6.35346 1.88299 6.66025 1.70221C6.96705 1.52143 7.30694 1.40393 7.65989 1.35663C8.01283 1.30934 8.37167 1.33321 8.71523 1.42684C9.0588 1.52048 9.38013 1.68197 9.66028 1.9018C9.94042 2.12163 10.1737 2.39534 10.3463 2.70679M7.99967 4.00016L10.0863 7.82016C10.4397 8.46683 11.2663 8.66683 11.9997 8.66683C12.7069 8.66683 13.3852 8.94778 13.8853 9.44788C14.3854 9.94798 14.6663 10.6263 14.6663 11.3335C14.6663 12.0407 14.3854 12.719 13.8853 13.2191C13.3852 13.7192 12.7069 14.0002 11.9997 14.0002" stroke="#0A0A0A" stroke-width="1.5" stroke-linecap="round" stroke-linejoin="round"/>
</svg>
